<svg width="500" height="500" viewBox="0 0 500 500" fill="none" xmlns="http://www.w3.org/2000/svg">
<circle cx="250" cy="250" r="250" fill="white"/>
<path d="M302.268 145.806C302.268 102.388 431.354 226.335 431.354 370.45C431.354 417.129 395.13 474.792 359.053 474.792C306.358 474.792 264.791 340.028 234.09 342.996C178.089 342.996 234.09 381.437 234.09 342.996C290.09 342.996 302.268 189.225 302.268 145.806Z" fill="#5088A1"/>
<path d="M197.732 145.755C197.732 102.337 68.6462 226.284 68.6462 370.399C68.6462 417.079 104.87 474.741 140.947 474.741C193.642 474.741 235.209 339.977 265.91 342.945C321.911 342.945 265.91 381.387 265.91 342.945C209.91 342.945 197.732 189.174 197.732 145.755Z" fill="#5088A1"/>
<path d="M167 253L246.436 161.397L333 253V232.28C333 232.28 271.112 182.222 254.583 134.134C237.792 85.2853 254.583 0 254.583 0C254.583 0 254.583 0 234.215 0C213.847 0 249.809 84.7847 234.215 134.134C219.803 179.739 167 232.28 167 232.28V253Z" fill="#5088A1"/>
<path d="M125 281.673C132.91 245.576 207.854 291.379 245.254 291.379C281.817 291.379 342.081 264.463 353.613 240.473C359.551 228.12 357.747 264.701 308.378 291.379C259.008 318.057 269.387 397 269.387 397H232.833C232.833 397 259.425 289.111 125 281.673Z" fill="white"/>
<ellipse cx="250.5" cy="270" rx="15.5" ry="17" fill="#5088A1"/>
</svg>
